<svg xmlns="http://www.w3.org/2000/svg" viewBox="0 0 192 192" role="img" aria-label="Reforma Profissional">
  <rect width="192" height="192" fill="#062e70"/>
  <path d="M48 89 96 50l48 39v50a9 9 0 0 1-9 9H57a9 9 0 0 1-9-9Z" fill="#fff" stroke="#087ce0" stroke-width="10" stroke-linejoin="round"/>
  <path d="m45 89 51-42 51 42" fill="none" stroke="#f5ae00" stroke-width="10" stroke-linecap="round" stroke-linejoin="round"/>
  <path d="m74 132 38-38" fill="none" stroke="#0759bd" stroke-width="11" stroke-linecap="round"/><path d="M106 85a18 18 0 0 0-4 18l10 10a18 18 0 0 0 18-4l-12-6-6-6Z" fill="#0759bd"/>
  <circle cx="74" cy="132" r="9" fill="#f5ae00"/><circle cx="74" cy="132" r="4" fill="#fff"/><circle cx="131" cy="68" r="4" fill="#0759bd"/><circle cx="141" cy="76" r="3.5" fill="#0759bd"/>
</svg>
