<svg xmlns="http://www.w3.org/2000/svg" viewBox="0 0 192 192" role="img" aria-labelledby="brand-title brand-desc">
  <title id="brand-title">Reforma Profissional</title>
  <desc id="brand-desc">Imóvel, serviço profissional e tecnologia em um símbolo</desc>
  <path d="M29 84 96 30l67 54v70a12 12 0 0 1-12 12H41a12 12 0 0 1-12-12Z" fill="#fff" stroke="#0759bd" stroke-width="14" stroke-linejoin="round"/>
  <path d="M25 85 96 27l71 58" fill="none" stroke="#f5ae00" stroke-width="14" stroke-linecap="round" stroke-linejoin="round"/>
  <path d="m65 143 54-54" fill="none" stroke="#0759bd" stroke-width="15" stroke-linecap="round"/>
  <path d="M111 76a25 25 0 0 0-6 25l15 15a25 25 0 0 0 25-6l-17-8-9-9Z" fill="#0759bd"/>
  <circle cx="65" cy="143" r="12" fill="#f5ae00"/><circle cx="65" cy="143" r="5" fill="#fff"/>
  <circle cx="145" cy="54" r="6" fill="#0759bd"/><circle cx="160" cy="65" r="5" fill="#0759bd"/><circle cx="169" cy="80" r="4" fill="#0759bd"/>
</svg>
